<svg id="Layer_1" data-name="Layer 1" xmlns="http://www.w3.org/2000/svg" viewBox="0 0 396.76 269.35"><defs><style>.cls-1{fill:#028847;}.cls-2{fill:#00ad65;}.cls-3{fill:#df0134;}.cls-4{fill:#0298c2;}.cls-5{fill:#cf1947;}.cls-6{fill:#008398;}.cls-7{fill:#c50637;}.cls-8{fill:#0089a9;}.cls-9{fill:#009d56;}.cls-10{fill:#b40138;}.cls-11{fill:#df0135;}.cls-12{fill:#fdfafb;}.cls-13{fill:#cbd8d0;}.cls-14{fill:#c9d6ce;}</style></defs><title>azerbaijan</title><path class="cls-1" d="M396.72,231.59c.82,16-10.34,31.37-25.79,35.67A65.81,65.81,0,0,1,353,269.34H42c-10.57,0-20.42-2.22-28.77-9.22A37,37,0,0,1,1.62,242.66c-.36-1.16-.19-2.61-1.53-3.32v-8.53h5c102.15.45,204.3-.9,306.45.73a29.46,29.46,0,0,1,11.08-.61c5.26.9,10.51.61,15.76.63C357.84,231.62,377.28,231.59,396.72,231.59Z"/><path class="cls-2" d="M311.57,231.54c-102.15-1.63-204.3-.28-306.45-.73h-5V179.67l109.21,0,66.61-.09,12.68,0H251.9l.83.28c8.8,7.61,17.57,15.25,26.41,22.8,8,6.81,16.23,13.31,24,20.38C306,225.65,310.24,227.24,311.57,231.54Z"/><path class="cls-3" d="M175.91,179.53l-66.61.09-109.21,0V90.55q70.21,0,140.44,0c1.26,0,2.6.35,3.73-.57l1.5,0c2,4.3,6.46,6,9.54,9.21a3.58,3.58,0,0,0-.18.64c-22.51,17.59-22.28,52.9.32,70.32C161.6,174.87,168.77,177.09,175.91,179.53Z"/><path class="cls-4" d="M.09,30.88C2.38,25,4.18,18.9,8.52,14A37.89,37.89,0,0,1,35.27.65c1.41-.11,2.8-.3,4.2-.45.64,1.8,2.13,2.87,3.5,4,2.92,2.5,5.88,4.95,8.81,7.44q11.13,9.48,22.26,19,14.5,12.32,29.05,24.6c7.54,6.37,15.11,12.71,22.63,19.11,5.94,5.06,11.82,10.21,17.72,15.32-1,0-2.05.12-3.08.12q-70.14,0-140.27,0Z"/><path class="cls-5" d="M.09,89.78q70.14,0,140.27,0c1,0,2.06-.08,3.08-.12l.82.32c-1.13.92-2.47.57-3.73.57q-70.21,0-140.44,0Z"/><path class="cls-6" d="M40.9.17C42.32.11,43.73,0,45.15,0Q200.28,0,355.42,0c13,0,24.67,3.53,33.26,14,5.2,6.34,8.19,13.58,8.17,21.92q-.09,26.92-.14,53.84l-61.09.15h-1.55a.75.75,0,0,0-.75,0l-3.14-.3c-1.18-.48-2.32-1.06-3.53-1.43q-31.9-9.75-63.81-19.47c-19-5.82-38.08-11.73-57.14-17.53q-48-14.59-95.94-29.09C89.34,15.94,68.92,9.77,48.54,3.47,45.91,2.66,43,2.4,40.9.17Z"/><path class="cls-7" d="M334.07,89.94h1.55c.52,2,2.35,1.73,3.72,2.12,6.77,1.92,13.56,3.74,20.35,5.57q18.51,5,37,10v72.05H271.3c-6.19,0-12.38.08-18.57.12l-.83-.28c-1-1.91-3.06-2.7-4.61-4-9.59-8.05-19.3-15.94-29-23.89,2.61-1.38,5.29-2.66,7.81-4.18,2-1.23,2.77-.58,3.44,1.47,1.12,3.4,2.55,6.69,4.11,10.7,1.36-4.1,2.55-7.47,3.59-10.87.57-1.83,1.23-2.48,3.17-1.38,3.06,1.73,6.27,3.17,9.42,4.74a46.43,46.43,0,0,0-4.12-10.31c-1.1-2.07-.64-2.88,1.56-3.49,3.26-.91,6.43-2.15,10.57-3.58-4.26-1.45-7.47-2.7-10.77-3.63-2.08-.59-2.38-1.38-1.41-3.25,1.68-3.24,3.14-6.6,5.2-11-4.18,2.07-7.32,3.48-10.3,5.16-2,1.13-2.78.69-3.47-1.44-1.09-3.4-2.54-6.69-4.09-10.69-1.33,3.94-2.54,7.16-3.5,10.44-.62,2.14-1.28,3-3.6,1.61-2.9-1.73-6.06-3-10.09-5,2.08,4.42,3.57,7.8,5.25,11.08.9,1.73.59,2.45-1.29,3-3.38,1-6.67,2.26-10.93,3.73,4.35,1.48,7.7,2.71,11.1,3.75,1.67.51,2,1.19,1.21,2.76-1.63,3.07-3.13,6.2-4.68,9.3-2.17-3.52-5.88-5.29-8.91-7.83-10.12-8.5-20.43-16.78-30.47-25.39-3.35-2.87-7.4-5.07-9.7-9.1,15-13.06,31-13.45,48.25-3.39-.53-2.53-2.06-3.34-3.26-4.39-6.66-5.83-14.64-8.78-23.15-10.54,1.8,0,3.61-.11,5.42-.11H307.73c7.48,0,15-.08,22.45-.13l3.14.3C333.58,90.31,333.83,90.29,334.07,89.94Z"/><path class="cls-8" d="M330.18,89.66c-7.49,0-15,.13-22.45.13H194.67c-1.81,0-3.62.07-5.42.11l-11.56,0L145.76,90l-1.5,0-.82-.32c-5.9-5.11-11.78-10.26-17.72-15.32-7.52-6.4-15.09-12.74-22.63-19.11Q88.56,42.95,74,30.63q-11.15-9.46-22.26-19C48.85,9.18,45.89,6.73,43,4.23,41.6,3.07,40.11,2,39.47.2l1.43,0c2.05,2.23,5,2.49,7.64,3.3,20.38,6.3,40.8,12.47,61.22,18.67q48,14.55,95.94,29.09c19.06,5.8,38.09,11.71,57.14,17.53q31.89,9.76,63.81,19.47C327.86,88.6,329,89.18,330.18,89.66Z"/><path class="cls-9" d="M252.73,179.78c6.19,0,12.38-.12,18.57-.12H396.71q0,26,0,51.94c-19.44,0-38.88,0-58.31,0-5.25,0-10.5.27-15.76-.63a29.46,29.46,0,0,0-11.08.61c-1.33-4.3-5.54-5.89-8.47-8.58-7.73-7.07-16-13.57-24-20.38C270.3,195,261.53,187.39,252.73,179.78Z"/><path class="cls-10" d="M396.72,107.6q-18.51-5-37-10c-6.79-1.83-13.58-3.65-20.35-5.57-1.37-.39-3.2-.17-3.72-2.12l61.09-.15Z"/><path class="cls-11" d="M218.31,151.61c9.68,7.95,19.39,15.84,29,23.89,1.55,1.3,3.59,2.09,4.61,4H188.59c.86-.22,1.72-.47,2.58-.66,9.13-2.09,17.48-5.61,23.76-12.94.2-.25.61-.64.56-.74-.38-.64-.77-.15-1.14.09-.55.34-1.1.66-1.64,1-24,14.83-55.21-1.36-56.9-29.46-.65-10.9,3.35-20.07,10.35-28.16l1.25-.41c2.3,4,6.35,6.23,9.7,9.1,10,8.61,20.35,16.89,30.47,25.39,3,2.54,6.74,4.31,8.91,7.83C216.14,152.55,217.48,151.64,218.31,151.61Z"/><path class="cls-12" d="M166.16,108.64c-7,8.09-11,17.26-10.35,28.16,1.69,28.1,32.93,44.29,56.9,29.46.54-.34,1.09-.66,1.64-1l.58.65c-6.28,7.33-14.63,10.85-23.76,12.94-.86.19-1.72.44-2.58.66l-12.68,0c-7.14-2.44-14.31-4.66-20.47-9.41-22.6-17.42-22.83-52.73-.32-70.32A48.83,48.83,0,0,1,166.16,108.64Z"/><path class="cls-13" d="M166.16,108.64a48.83,48.83,0,0,0-11-8.84,3.58,3.58,0,0,1,.18-.64,57.22,57.22,0,0,1,22.39-9.28l11.56,0c8.51,1.76,16.49,4.71,23.15,10.54,1.2,1,2.73,1.86,3.26,4.39-17.22-10.06-33.27-9.67-48.25,3.39Z"/><path class="cls-5" d="M177.69,89.88a57.22,57.22,0,0,0-22.39,9.28c-3.08-3.17-7.55-4.91-9.54-9.21Z"/><path class="cls-10" d="M334.07,89.94c-.24.35-.49.37-.75,0A.75.75,0,0,1,334.07,89.94Z"/><path class="cls-14" d="M218.31,151.61c-.83,0-2.17.94-1.82-1.06,1.55-3.1,3-6.23,4.68-9.3.83-1.57.46-2.25-1.21-2.76-3.4-1-6.75-2.27-11.1-3.75,4.26-1.47,7.55-2.73,10.93-3.73,1.88-.55,2.19-1.27,1.29-3-1.68-3.28-3.17-6.66-5.25-11.08,4,2,7.19,3.27,10.09,5,2.32,1.39,3,.53,3.6-1.61,1-3.28,2.17-6.5,3.5-10.44,1.55,4,3,7.29,4.09,10.69.69,2.13,1.46,2.57,3.47,1.44,3-1.68,6.12-3.09,10.3-5.16-2.06,4.38-3.52,7.74-5.2,11-1,1.87-.67,2.66,1.41,3.25,3.3.93,6.51,2.18,10.77,3.63-4.14,1.43-7.31,2.67-10.57,3.58-2.2.61-2.66,1.42-1.56,3.49a46.43,46.43,0,0,1,4.12,10.31c-3.15-1.57-6.36-3-9.42-4.74-1.94-1.1-2.6-.45-3.17,1.38-1,3.4-2.23,6.77-3.59,10.87-1.56-4-3-7.3-4.11-10.7-.67-2.05-1.4-2.7-3.44-1.47C223.6,149,220.92,150.23,218.31,151.61Z"/><path class="cls-12" d="M214.35,165.26c.37-.24.76-.73,1.14-.09,0,.1-.36.49-.56.74Z"/></svg>