<svg id="Layer_1" data-name="Layer 1" xmlns="http://www.w3.org/2000/svg" viewBox="0 0 512 331.88"><defs><style>.cls-1{fill:#d70027;}.cls-2{fill:#c50024;}.cls-3{fill:#fdfafb;}.cls-4{fill:#f1ecf0;}</style></defs><title>turkey</title><path class="cls-1" d="M512,11.83v303H75.57c-6,0-11.92.09-17.87-.94A49.1,49.1,0,0,1,29,298.11c-9.32-10.29-13-22.92-13-36.65Q16,130.72,16,0c1.83-.06,3.66-.16,5.49-.16q235.21,0,470.45-.06C501.25-.22,508.12,3.13,512,11.83ZM223.36,109.14C214.35,94.67,182.59,79,152.08,84c-38.64,6.34-68.66,40.16-69.76,79.34s26.76,75,64.32,83.36c33.81,7.55,66.43-8.71,76.77-23.6C186.68,242.15,153,227,136.77,204.8c-18.83-25.65-16.34-61.52,5.79-84.89C162.25,99.11,196.82,93.74,223.36,109.14ZM244,187.35a2.58,2.58,0,0,0,.72,3.11c1.2.8,2.48.39,3.68-.48,3.35-2.44,6.83-4.69,10.12-7.2,2.27-1.73,4-2,6.39.09a102.78,102.78,0,0,0,9.21,6.76c1.38,1,2.91,1.88,4.58.75s.61-2.75.23-4c-1.09-3.82-2.21-7.64-3.61-11.36-1-2.67-.23-4.39,2-5.92,3.39-2.35,6.73-4.8,10.07-7.25,1.1-.81,2-1.82,1.57-3.37-.46-1.78-1.93-1.58-3.23-1.59a93.65,93.65,0,0,0-9.48,0c-3.29.3-5.22-.69-6.41-3.94-1.48-4-3.51-7.83-5.3-11.74-.56-1.23-1.15-2.57-2.7-2.57-1.79,0-2.4,1.4-2.88,2.89-1.28,3.93-2.65,7.82-3.91,11.75-.8,2.49-2.06,3.83-5,3.62-4.14-.28-8.32,0-12.49-.08-1.44,0-2.69.3-3.21,1.74s.55,2.5,1.62,3.31c3,2.29,6,4.67,9.24,6.74,2.74,1.77,3.88,3.55,2.48,6.94C246,179.33,245.13,183.4,244,187.35Z"/><path class="cls-2" d="M512,319.83c-3.88,8.7-10.74,12.06-20.05,12.05q-235.95-.11-471.9,0c-9.31,0-16.17-3.35-20-12.05v-308C3.12,4.9,8.24.66,16,0q0,130.73,0,261.46c0,13.73,3.66,26.36,13,36.65A49.1,49.1,0,0,0,57.7,313.89c5.95,1,11.9.94,17.87.94H512Z"/><path class="cls-3" d="M223.36,109.14c-26.54-15.4-61.11-10-80.8,10.77-22.13,23.37-24.62,59.24-5.79,84.89C153,227,186.68,242.15,223.41,223.06c-10.34,14.89-43,31.15-76.77,23.6-37.56-8.39-65.42-44.08-64.32-83.36s31.12-73,69.76-79.34C182.59,79,214.35,94.67,223.36,109.14Z"/><path class="cls-4" d="M244,187.35c1.18-3.95,2.07-8,3.64-11.81,1.4-3.39.26-5.17-2.48-6.94-3.2-2.07-6.19-4.45-9.24-6.74-1.07-.81-2.19-1.75-1.62-3.31s1.77-1.76,3.21-1.74c4.17,0,8.35-.2,12.49.08,3,.21,4.21-1.13,5-3.62,1.26-3.93,2.63-7.82,3.91-11.75.48-1.49,1.09-2.89,2.88-2.89,1.55,0,2.14,1.34,2.7,2.57,1.79,3.91,3.82,7.73,5.3,11.74,1.19,3.25,3.12,4.24,6.41,3.94a93.65,93.65,0,0,1,9.48,0c1.3,0,2.77-.19,3.23,1.59.39,1.55-.47,2.56-1.57,3.37-3.34,2.45-6.68,4.9-10.07,7.25-2.19,1.53-3,3.25-2,5.92,1.4,3.72,2.52,7.54,3.61,11.36.38,1.3,1.46,2.9-.23,4s-3.2.22-4.58-.75a102.78,102.78,0,0,1-9.21-6.76c-2.35-2.1-4.12-1.82-6.39-.09-3.29,2.51-6.77,4.76-10.12,7.2-1.2.87-2.48,1.28-3.68.48A2.58,2.58,0,0,1,244,187.35Z"/></svg>