<svg id="Layer_1" data-name="Layer 1" xmlns="http://www.w3.org/2000/svg" viewBox="0 0 409.61 277.39"><defs><style>.cls-1{fill:#141c22;}.cls-2{fill:#e81f33;}.cls-3{fill:#f9f9fa;}.cls-4{fill:#113b9a;}.cls-5{fill:#113b9b;}.cls-6{fill:#e91f34;}.cls-7{fill:#e91f33;}</style></defs><title>united-kingdom</title><path class="cls-1" d="M409.59,249.09c-2,2.38-2,5.61-3.4,8.29-7,13.51-18.24,20-33.31,20q-19.61,0-39.2,0H57.28c-6.92,0-13.85.08-20.77,0C14.62,277.06,0,262.36,0,240.5q-.06-36.41,0-72.8Q0,101.9,0,36.1c0-17.24,10.07-30.43,26.57-35C30.6,0,34.75,0,38.87,0h314c6.53,0,13.05,0,19.58,0,18.95.1,31.34,9.61,36.35,27.87.15.52.16,1,.79,1.2Zm-240.52,15a43.13,43.13,0,0,1,5.58.18c3.73.57,4.54-.94,4.52-4.53q-.22-45.57,0-91.16c0-3.68-1.06-4.29-4.45-4.29q-76.37.16-152.73.08c-10,0-10,0-8.42,10.12l0,48.51a148.48,148.48,0,0,0-.09,22.32,20.9,20.9,0,0,0,1.83,6.48c1.2,3.16,2.51,3.67,5.66,1.56q57.33-38.5,114.85-76.69c1.54-1,2.95-2.29,5-2.27,7.19.1,14.37.15,21.56.22-1.06.8-2.09,1.64-3.19,2.37q-62.5,41.67-125,83.35c-1.26.85-2.91,1.34-3.59,3a27.6,27.6,0,0,0,22.75-3.08q19.45-13,38.9-25.94,38.27-25.44,76.54-50.85c.08,4,0,8,.28,12,.23,2.8-1,4.27-3.17,5.74q-45.09,29.91-90.06,60c-1.22.81-2.75,1.36-3.63,2.94h9.08c1.06.06,2.12.16,3.18.16ZM240.52,13.26a43.28,43.28,0,0,1-5.59-.18c-3.73-.57-4.53.94-4.52,4.53q.22,45.57,0,91.16c0,3.68,1,4.29,4.44,4.29q76.36-.16,152.73-.08c10,0,10,0,8.43-10.12l0-48.51a147.17,147.17,0,0,0,.1-22.32,21.46,21.46,0,0,0-1.83-6.48c-1.21-3.16-2.52-3.67-5.67-1.56q-57.31,38.49-114.85,76.68c-1.53,1-2.94,2.3-5,2.27-7.19-.09-14.38-.14-21.57-.21,1.07-.79,2.1-1.63,3.2-2.37q62.49-41.67,125-83.35c1.27-.85,2.91-1.34,3.79-3.45-8.05-.14-15.62-2-23.06,3.42-12.58,9.17-25.81,17.45-38.79,26.08Q279,68.5,240.75,93.91c-.07-4,0-8-.28-12-.23-2.8,1-4.27,3.18-5.74Q288.9,46.18,334,16c1.11-.74,2.54-1.23,3.27-2.72h-9.06c-1.06-.06-2.12-.16-3.18-.16Zm-159.19,0c-17-.18-33.9-.37-50.84.1l-.19,1.05,132.42,88.29H138.57c-12.48-8.39-24.94-16.82-37.45-25.18Q61.25,50.89,21.31,24.34c-1.16-.77-2.48-2.56-3.74-1.72-2.43,1.62-2.86,4.65-3.78,7.27C13,32,14.73,32.66,16,33.53Q39.63,49.3,63.21,65.07q28,18.8,56,37.66c-6.51.07-13,.07-19.53.25a10.88,10.88,0,0,1-6.66-2Q55.16,75.51,17.18,50.22c-1.12-.75-2-2.11-3.79-1.83a14.05,14.05,0,0,0,.23,6l0,48.51c-.67,1.82-.14,3.72-.39,5.55-.47,3.47.57,4.68,4.42,4.67q78.55-.22,157.13,0c3.38,0,4.46-.61,4.44-4.29-.18-28.79-.1-57.58-.1-86.37,0-9.72,0-9.72-10-9.14-8.11,0-16.22-.15-24.33-.14Q113,13.15,81.33,13.27ZM271,174.66q20.89,14,41.78,28.07,37.72,25.2,75.51,50.32c1.16.77,2.48,2.56,3.74,1.69,2.4-1.64,2.95-4.64,3.73-7.3.59-2-1.39-2.36-2.49-3.1Q366.9,226.63,340.47,209q-25.56-17.15-51.05-34.36c6.52-.07,13.05-.06,19.57-.25a10.92,10.92,0,0,1,6.66,2.09q38.44,25.8,77,51.47c1,.7,1.93,1.81,3.67,1.78,0-2.29.36-4.5-.34-6.7q0-24.26,0-48.51c.73-2.47.14-5,.38-7.49.19-2.08-.64-2.73-2.71-2.67-5,.13-10,.06-15.06,0-5.72,0-7.18-1.14-8.78-6.51,1.62-5.44,3-6.5,8.85-6.53,4.93,0,9.87-.1,14.8,0,2.26.06,3.07-.76,3-3-.09-5.86-.26-11.74.06-17.59.21-3.9-1.09-4.85-4.9-4.84q-82,.18-164,.08c-8.76,0-10.25-1.48-10.25-10.17,0-32.93,0-65.85.06-98.78,0-3.09-.7-4.19-3.95-4a151.66,151.66,0,0,1-17.19,0c-3.77-.24-4.32,1.17-4.3,4.52.12,32.52.07,65.05.07,97.58,0,9.64-1.25,10.91-10.72,10.91h-88c-25.33,0-50.66.08-76-.09-3.6,0-4.6,1-4.42,4.51a149.35,149.35,0,0,1,0,16.39c-.24,3.84,1.21,4.58,4.75,4.57q82-.15,164-.07a36.4,36.4,0,0,1,4.79.16A5.92,5.92,0,0,1,192,157a32.05,32.05,0,0,1,.14,4.39c0,32.92.06,65.85-.07,98.78,0,3.36.9,4.34,4.22,4.18a144.54,144.54,0,0,1,16.39,0c3.82.24,4.89-.83,4.87-4.76-.17-33.2-.1-66.39-.09-99.58,0-6.57,2.06-8.65,8.57-8.65q61,0,122,0c5.94,0,7.14.93,8.87,6.51-1.69,5.51-3,6.52-8.86,6.52-37.72,0-75.44.06-113.16-.07-3.38,0-4.47.6-4.44,4.29.18,28.79.1,57.58.1,86.36,0,9.73,0,9.73,10,9.15,8.1.05,16.21.15,24.32.14q31.71,0,63.41-.15c17,.19,33.91.36,50.86-.09l.18-1.05-132.4-88.3Z"/><path class="cls-2" d="M356.86,157.86c-1.73-5.58-2.93-6.51-8.87-6.51q-61,0-122,0c-6.51,0-8.56,2.08-8.57,8.65,0,33.19-.08,66.38.09,99.58,0,3.93-1,5-4.87,4.76a144.54,144.54,0,0,0-16.39,0c-3.32.16-4.23-.82-4.22-4.18.13-32.93.08-65.86.07-98.78A32.05,32.05,0,0,0,192,157a5.92,5.92,0,0,0-5.46-5.48,36.4,36.4,0,0,0-4.79-.16q-82,0-164,.07c-3.54,0-5-.73-4.75-4.57a149.35,149.35,0,0,0,0-16.39c-.18-3.48.82-4.53,4.42-4.51,25.33.17,50.66.09,76,.09h88c9.47,0,10.72-1.27,10.72-10.91,0-32.53.05-65.06-.07-97.58,0-3.35.53-4.76,4.3-4.52a151.66,151.66,0,0,0,17.19,0c3.25-.15,4,1,3.95,4-.1,32.93-.06,65.85-.06,98.78,0,8.69,1.49,10.17,10.25,10.17q82,0,164-.08c3.81,0,5.11.94,4.9,4.84-.32,5.85-.15,11.73-.06,17.59,0,2.24-.77,3.06-3,3-4.93-.13-9.87-.06-14.8,0-5.81,0-7.23,1.09-8.85,6.53Z"/><path class="cls-3" d="M356.86,157.86l13,0c1.6,5.37,3.06,6.48,8.78,6.51,5,0,10,.09,15.06,0,2.07-.06,2.9.59,2.71,2.67-.24,2.49.35,5-.38,7.49H324.21a154.43,154.43,0,0,0,14.89,10.81L396,223c.7,2.2.35,4.41.34,6.7-1.74,0-2.63-1.08-3.67-1.78q-38.52-25.68-77-51.47a10.92,10.92,0,0,0-6.66-2.09c-6.52.19-13.05.18-19.57.25a171.3,171.3,0,0,0-18.41,0H246.89L379.29,263l-.18,1.05c-16.95.45-33.9.28-50.86.09a11.35,11.35,0,0,0-1.18-1q-41.88-27.93-83.77-55.82c-.73-.48-1.37-1.29-2.78-1v57.82c-10,.58-10,.58-10-9.15,0-28.78.08-57.57-.1-86.36,0-3.69,1.06-4.3,4.44-4.29,37.72.13,75.44.09,113.16.07C353.85,164.38,355.17,163.37,356.86,157.86Z"/><path class="cls-3" d="M13.62,54.35a14.05,14.05,0,0,1-.23-6c1.75-.28,2.67,1.08,3.79,1.83q38,25.29,75.87,50.71a10.88,10.88,0,0,0,6.66,2c6.51-.18,13-.18,19.53-.25a186,186,0,0,0,19.33,0h24.15L30.3,14.42l.19-1.05c16.94-.47,33.89-.28,50.84-.1a12.59,12.59,0,0,0,1.19,1q41.87,27.93,83.76,55.81c.73.49,1.37,1.29,2.79,1V13.26c10-.58,10-.58,10,9.14,0,28.79-.08,57.58.1,86.37,0,3.68-1.06,4.29-4.44,4.29q-78.57-.16-157.13,0c-3.85,0-4.89-1.2-4.42-4.67.25-1.83-.28-3.73.39-5.55H85.37A154.33,154.33,0,0,0,70.49,92.05Z"/><path class="cls-3" d="M396,102.86C397.54,113,397.54,113,387.57,113q-76.36,0-152.73.08c-3.39,0-4.46-.61-4.44-4.29q.25-45.58,0-91.16c0-3.59.79-5.1,4.52-4.53a43.28,43.28,0,0,0,5.59.18c0,19.33,0,38.66,0,58.7,10-6.67,19.22-12.76,28.39-18.9q29.69-19.87,59.35-39.79h9.06c-.73,1.49-2.16,2-3.27,2.72Q288.89,46.14,243.65,76.2c-2.21,1.47-3.41,2.94-3.18,5.74.32,4,.21,8,.28,12-.06.92-.18,1.84-.19,2.76-.07,6.59-.06,6.59,6.6,6.06,7.19.07,14.38.12,21.57.21,2,0,3.45-1.25,5-2.27Q331.17,62.38,388.56,24c3.15-2.11,4.46-1.6,5.67,1.56A21.46,21.46,0,0,1,396.06,32a147.17,147.17,0,0,1-.1,22.32c-.58.32-1.19.59-1.74,1l-68.74,45.82c-.49.33-1.23.53-1.21,1.73Z"/><path class="cls-3" d="M162.42,174.64c-7.19-.07-14.37-.12-21.56-.22-2,0-3.45,1.25-5,2.27Q78.42,215,21,253.38c-3.15,2.11-4.46,1.6-5.66-1.56a20.9,20.9,0,0,1-1.83-6.48A148.48,148.48,0,0,1,13.62,223c.58-.32,1.19-.59,1.74-1q34.38-22.91,68.74-45.82c.5-.33,1.23-.53,1.21-1.73H13.59c-1.54-10.12-1.54-10.12,8.42-10.12q76.36,0,152.73-.08c3.39,0,4.47.61,4.45,4.29q-.27,45.59,0,91.16c0,3.59-.79,5.1-4.52,4.53a43.13,43.13,0,0,0-5.58-.18v-58.7c-10,6.67-19.22,12.76-28.39,18.9Q111,244.19,81.33,264.1H72.25c.88-1.58,2.41-2.13,3.63-2.94q45-30,90.06-60c2.22-1.47,3.4-2.94,3.17-5.74-.31-4-.2-8-.28-12,.07-.92.18-1.84.19-2.76C169.09,174.11,169.09,174.11,162.42,174.64Z"/><path class="cls-4" d="M169.07,13.26V71.08c-1.42.31-2.06-.49-2.79-1q-41.9-27.88-83.76-55.81a12.59,12.59,0,0,1-1.19-1q31.71-.09,63.41-.15C152.85,13.11,161,13.21,169.07,13.26Z"/><path class="cls-4" d="M328.25,13.27Q298.58,33.16,268.9,53.06c-9.17,6.14-18.36,12.23-28.39,18.9,0-20,0-39.37,0-58.7l84.55-.15C326.13,13.11,327.19,13.21,328.25,13.27Z"/><path class="cls-4" d="M81.33,264.1q29.67-19.89,59.35-39.79c9.17-6.14,18.37-12.23,28.39-18.9v58.7l-84.56.15C83.45,264.26,82.39,264.16,81.33,264.1Z"/><path class="cls-4" d="M240.52,264.11V206.29c1.41-.32,2,.49,2.78,1q41.9,27.9,83.77,55.82a11.35,11.35,0,0,1,1.18,1q-31.69.09-63.41.15C256.73,264.26,248.62,264.16,240.52,264.11Z"/><path class="cls-5" d="M13.62,54.35l56.87,37.7a154.33,154.33,0,0,1,14.88,10.81H13.59Z"/><path class="cls-5" d="M396,102.86H324.27c0-1.2.72-1.4,1.21-1.73l68.74-45.82c.55-.37,1.16-.64,1.74-1Q396,78.6,396,102.86Z"/><path class="cls-5" d="M13.59,174.51H85.31c0,1.2-.71,1.4-1.21,1.73q-34.35,22.92-68.74,45.82c-.55.37-1.16.64-1.74,1Z"/><path class="cls-5" d="M396,223l-56.86-37.7a154.43,154.43,0,0,1-14.89-10.81H396Q396,198.77,396,223Z"/><path class="cls-6" d="M247.16,102.73c-6.66.53-6.67.53-6.6-6.06,0-.92.13-1.84.19-2.76Q279,68.48,317.29,43.06c13-8.63,26.21-16.91,38.79-26.08,7.44-5.42,15-3.56,23.06-3.42-.88,2.11-2.52,2.6-3.79,3.45q-62.48,41.7-125,83.35C249.26,101.1,248.23,101.94,247.16,102.73Z"/><path class="cls-6" d="M162.42,174.64c6.67-.53,6.67-.53,6.6,6.06,0,.92-.12,1.84-.19,2.76q-38.27,25.42-76.54,50.85-19.46,12.94-38.9,25.94a27.6,27.6,0,0,1-22.75,3.08c.68-1.63,2.33-2.12,3.59-3q62.49-41.7,125-83.35C160.33,176.28,161.36,175.44,162.42,174.64Z"/><path class="cls-2" d="M138.57,102.71a186,186,0,0,1-19.33,0q-28-18.84-56-37.66Q39.64,49.26,16,33.53c-1.3-.87-3-1.51-2.24-3.64.92-2.62,1.35-5.65,3.78-7.27,1.26-.84,2.58.95,3.74,1.72q39.93,26.57,79.81,53.19C113.63,85.89,126.09,94.32,138.57,102.71Z"/><path class="cls-7" d="M271,174.66a171.3,171.3,0,0,1,18.41,0q25.51,17.19,51.05,34.36,26.38,17.7,52.81,35.35c1.1.74,3.08,1.09,2.49,3.1-.78,2.66-1.33,5.66-3.73,7.3-1.26.87-2.58-.92-3.74-1.69q-37.77-25.12-75.51-50.32Q291.86,188.75,271,174.66Z"/></svg>